<svg xmlns="http://www.w3.org/2000/svg"  viewBox="0 0 64 64" width="96px" height="96px"><linearGradient id="bD4D4ZSYWE88s3gBQvnwNa" x1="31.5" x2="31.5" y1="11" y2="52" gradientUnits="userSpaceOnUse"><stop offset="0" stop-color="#8ab4ff"/><stop offset=".699" stop-color="#e492ff"/></linearGradient><path fill="url(#bD4D4ZSYWE88s3gBQvnwNa)" d="M31.5,11C20.2,11,11,20.2,11,31.5S20.2,52,31.5,52S52,42.8,52,31.5S42.8,11,31.5,11z M31.5,46.34c-8.18,0-14.84-6.66-14.84-14.84s6.66-14.84,14.84-14.84s14.84,6.66,14.84,14.84S39.68,46.34,31.5,46.34z"/><linearGradient id="bD4D4ZSYWE88s3gBQvnwNb" x1="58" x2="58" y1=".586" y2="12.466" gradientUnits="userSpaceOnUse"><stop offset="0" stop-color="#8ab4ff"/><stop offset=".699" stop-color="#e492ff"/></linearGradient><rect width="2" height="2" x="57" y="6" fill="url(#bD4D4ZSYWE88s3gBQvnwNb)"/><linearGradient id="bD4D4ZSYWE88s3gBQvnwNc" x1="58" x2="58" y1=".586" y2="4.637" gradientUnits="userSpaceOnUse"><stop offset="0" stop-color="#8ab4ff"/><stop offset=".699" stop-color="#e492ff"/></linearGradient><rect width="2" height="2" x="57" y="2" fill="url(#bD4D4ZSYWE88s3gBQvnwNc)"/><linearGradient id="bD4D4ZSYWE88s3gBQvnwNd" x1="52" x2="52" y1="6.216" y2="10.821" gradientUnits="userSpaceOnUse"><stop offset="0" stop-color="#8ab4ff"/><stop offset=".699" stop-color="#e492ff"/></linearGradient><rect width="2" height="2" x="51" y="8" fill="url(#bD4D4ZSYWE88s3gBQvnwNd)"/><g><linearGradient id="bD4D4ZSYWE88s3gBQvnwNe" x1="56" x2="56" y1="6.613" y2="47.712" gradientUnits="userSpaceOnUse"><stop offset="0" stop-color="#1A6DFF"/><stop offset="1" stop-color="#C822FF"/></linearGradient><rect width="2" height="2" x="55" y="4" fill="url(#bD4D4ZSYWE88s3gBQvnwNe)"/><linearGradient id="bD4D4ZSYWE88s3gBQvnwNf" x1="38.5" x2="38.5" y1="6.613" y2="47.712" gradientUnits="userSpaceOnUse"><stop offset="0" stop-color="#1A6DFF"/><stop offset="1" stop-color="#C822FF"/></linearGradient><path fill="url(#bD4D4ZSYWE88s3gBQvnwNf)" d="M49,10h-2v2h2v2h-2v-2h-2v2h-2v2h2v2h-2 v-2h-2v2v1h-2v1v1h-1v1h-1c0,0-4,6-5,10c-1.697-3.394-6.274-6.788-7.622-7.739C24.133,24.088,23.845,24,23.545,24h-0.088 C22.652,24,22,24.652,22,25.457c0,0.348,0.121,0.681,0.349,0.946C23.775,28.062,27,32,29,37c0.743,1.857,1.939,3,3,3c4,0,2-3,7-10 c0-0.536,0-1.352,0-2h2v-2h2v-2h2v-2h-2v-2h2v2h2v-2v-2h2v-2h2v-2h2v-2h2v-2h-2h-2V8h-2V10z"/><linearGradient id="bD4D4ZSYWE88s3gBQvnwNg" x1="53" x2="53" y1="6.613" y2="47.712" gradientUnits="userSpaceOnUse"><stop offset="0" stop-color="#1A6DFF"/><stop offset="1" stop-color="#C822FF"/></linearGradient><rect width="4" height="2" x="51" y="6" fill="url(#bD4D4ZSYWE88s3gBQvnwNg)"/></g></svg>